<svg width="92" height="148" viewBox="0 0 92 148" fill="none" xmlns="http://www.w3.org/2000/svg">
<path d="M27.85 30.6338L20.0657 25.96C18.8248 26.0555 17.5772 25.9962 16.35 25.7834C14.3334 25.4251 13.8998 25.4043 14.1418 23.7685C14.3838 22.1327 14.046 19.9516 14.646 19.7231C15.2459 19.4946 19.491 21.3382 20.2271 22.5897L28.082 25.4822L27.85 30.6338Z" fill="#B97964"/>
<path d="M50.9106 22.7143V32.0618C50.9106 32.0618 48.9746 32.7214 46.5698 33.412C43.812 34.2014 40.4391 35.0323 38.6846 34.97C35.4075 34.8038 24.3159 28.8733 24.3159 28.8733L26.3326 24.9162C26.3326 24.9162 38.4325 29.1641 39.945 28.8577C41.4575 28.5513 50.9106 22.7143 50.9106 22.7143Z" fill="#407BFF"/>
<path opacity="0.2" d="M50.9106 27.2687V32.0671C50.9106 32.0671 48.9746 32.7266 46.5698 33.4173C47.4571 30.6338 49.6704 28.3644 50.9106 27.2687Z" fill="black"/>
<path d="M52.9272 55.9864C52.9272 55.9864 47.4621 85.9816 46.005 98.2996C44.0993 114.367 36.3099 137.871 36.3099 137.871L39.4257 138.702C39.4257 138.702 50.4064 118.729 52.534 100.756C61.256 82.388 61.9568 59.7669 61.9568 59.7669L52.9272 55.9864Z" fill="#B97964"/>
<path d="M30.5321 145.141C31.0355 144.902 31.5773 144.762 32.1304 144.726C32.1304 144.726 34.0462 143.562 35.9469 139.055H38.0795C38.4399 139.06 38.7901 139.179 39.0831 139.395C39.376 139.611 39.5976 139.915 39.718 140.265C39.7531 140.363 39.7735 140.467 39.7785 140.571C39.7564 141.093 39.7025 141.614 39.6172 142.129C39.3011 143.884 38.8836 145.618 38.3669 147.322L38.0039 147.224L38.6643 143.947C38.8811 142.83 37.7468 143.905 37.2174 145.032C36.688 146.159 35.8813 147.286 33.5269 146.73C30.7792 146.06 29.67 145.65 30.5321 145.141Z" fill="#2E353A"/>
<path d="M58.6193 55.5086C58.6193 55.5086 59.2999 86.0179 60.3485 98.3826C61.7098 114.507 58.8058 139.164 58.8058 139.164L62.0224 139.309C62.0224 139.309 68.753 117.431 67.2405 99.3901C72.0855 79.5577 68.2488 57.2794 68.2488 57.2794L58.6193 55.5086Z" fill="#B97964"/>
<path d="M53.8045 146.149C54.2806 145.854 54.8052 145.651 55.3523 145.551C55.3523 145.551 57.137 144.186 58.5487 139.491L60.6712 139.242C61.0321 139.206 61.3948 139.287 61.7091 139.473C62.0234 139.659 62.2738 139.941 62.4257 140.28C62.471 140.374 62.5016 140.473 62.5165 140.576C62.5493 141.107 62.5493 141.64 62.5165 142.171C62.3875 143.944 62.1552 145.708 61.8207 147.452L61.4477 147.395L61.7602 144.061C61.8611 142.929 60.8427 144.128 60.4343 145.302C60.0259 146.476 59.3453 147.691 56.9404 147.405C54.1473 147.031 53.0029 146.751 53.8045 146.149Z" fill="#2E353A"/>
<path d="M69.479 3.60899C69.479 3.60899 71.0772 3.69727 72.4233 6.40286C73.7694 9.10846 72.0855 12.1152 71.7477 13.5537C71.4099 14.9922 69.731 16.2645 72.5039 18.4404C75.2769 20.6163 76.9406 22.9272 74.692 25.2797C72.4435 27.6322 74.9139 29.4342 71.667 31.179C68.4202 32.9239 56.4564 30.3118 54.9439 26.9363C53.4314 23.5608 55.2565 20.9954 55.3523 19.9879C55.448 18.9805 53.4314 17.9471 52.9272 14.6495C52.4231 11.3519 55.0044 10.6456 55.3523 9.13961C55.7001 7.63362 54.0818 5.73295 55.3523 2.52883C56.6228 -0.675304 69.3075 -1.36598 69.479 3.60899Z" fill="#2E353A"/>
<path d="M77.5305 48.5343C75.6197 48.7887 73.4115 44.9459 71.8133 41.3626C70.447 38.3247 69.4941 35.4685 69.4941 35.4685L70.5025 32.5396L73.1342 24.8954C73.1342 24.8954 74.9744 27.5387 77.7423 37.6028C78.186 39.2231 78.7204 41.0355 79.2094 43.0608C79.2057 43.5725 79.3592 44.0724 79.648 44.4889C79.648 46.0104 79.8245 48.2279 77.5305 48.5343Z" fill="#407BFF"/>
<path opacity="0.2" d="M71.778 41.3627C70.4168 38.3247 69.479 35.4685 69.479 35.4685L70.4873 32.5396C71.1932 34.5649 72.2267 38.2364 71.778 41.3627Z" fill="black"/>
<path opacity="0.2" d="M79.648 44.4889C78.6397 45.1744 77.5859 45.164 76.9961 43.9124C75.8012 41.3834 76.9557 38.8803 77.7725 37.5977C78.2212 39.2179 78.7354 41.0303 79.2245 43.0556C79.2084 43.5684 79.3572 44.0723 79.648 44.4889Z" fill="black"/>
<path d="M49.5695 47.5372C49.5695 47.5372 59.6528 51.2555 69.2621 50.5648C69.2621 50.5648 68.3899 38.3091 63.3483 36.128C58.3066 33.9469 49.5695 37.0628 49.5695 47.5372Z" fill="#407BFF"/>
<path opacity="0.2" d="M49.5695 47.5372C49.5695 47.5372 59.6528 51.2555 69.2621 50.5648C69.2621 50.5648 68.3899 38.3091 63.3483 36.128C58.3066 33.9469 49.5695 37.0628 49.5695 47.5372Z" fill="black"/>
<path d="M50.9963 48.4097L67.6337 49.8897C67.7956 45.6416 68.3887 41.4226 69.4033 37.3017C69.8016 35.6607 70.3007 33.8275 70.941 31.7087C71.2839 30.5766 71.662 29.3614 72.0855 28.0736C72.4031 27.0817 72.7459 26.0275 73.1241 24.9162C70.8647 24.1732 68.5564 23.5987 66.217 23.1973C63.7481 22.7456 61.2513 22.4749 58.7453 22.3871C55.5085 22.3871 51.7878 22.7351 51.7878 22.7351C51.7878 22.7351 51.2584 22.8649 50.9257 26.4014C50.6282 29.699 50.3308 36.3358 50.9963 48.4097Z" fill="#407BFF"/>
<path d="M51.0769 50.9802L67.7143 52.3928C67.9765 48.1344 68.1731 42.3805 69.4184 37.3017C69.8167 35.6607 70.3158 33.8275 70.9561 31.7087C71.299 30.5766 71.6771 29.3614 72.1006 28.0736C72.4182 27.0817 72.761 26.0275 73.1391 24.9162C70.8798 24.1732 68.5715 23.5987 66.2321 23.1973C63.7632 22.7456 61.2664 22.4749 58.7604 22.3871C55.5236 22.3871 51.8029 22.7351 51.8029 22.7351C51.8029 22.7351 51.2735 22.8649 50.9408 26.4014C50.6282 29.699 50.4063 38.9063 51.0769 50.9802Z" fill="#2E353A"/>
<path d="M60.1217 26.1573C64.2256 25.638 65.4558 23.8101 65.4558 23.8101C62.8543 21.281 65.0172 16.8981 65.0172 16.8981L60.0814 17.8484C60.1973 18.5574 60.2613 19.2743 60.273 19.9931C60.3133 23.0778 58.9571 23.109 58.9571 23.109C58.0899 24.776 60.1217 26.1573 60.1217 26.1573Z" fill="#B97964"/>
<path opacity="0.2" d="M60.0813 17.8484C60.1972 18.5574 60.2612 19.2743 60.2729 19.9932C63.6054 19.9932 65.0171 16.8773 65.0171 16.8773L60.0813 17.8484Z" fill="black"/>
<path d="M62.8088 3.62456C58.5184 3.38568 57.0109 5.67582 56.4563 10.2094C55.7606 15.8802 56.7689 19.9931 62.1988 19.0792C69.5646 17.8484 69.9377 4.02962 62.8088 3.62456Z" fill="#B97964"/>
<path d="M59.2393 10.1211C58.8615 10.7619 58.4095 11.3531 57.8932 11.8815C58.0099 12.0716 58.175 12.225 58.3707 12.3248C58.5663 12.4247 58.7848 12.4672 59.0023 12.4476L59.2393 10.1211Z" fill="#A24E3F"/>
<path d="M61.8862 9.90821C61.8862 10.2717 62.0273 10.5781 62.2643 10.5989C62.5013 10.6197 62.708 10.3392 62.7382 9.97572C62.7685 9.6122 62.597 9.30581 62.3601 9.28504C62.1231 9.26427 61.9164 9.5395 61.8862 9.90821Z" fill="#2E353A"/>
<path d="M62.461 9.31097L61.7148 8.93707C61.7148 8.93707 62.0475 9.63295 62.461 9.31097Z" fill="#2E353A"/>
<path d="M57.5152 9.47716C57.4899 9.84068 57.6563 10.1523 57.8933 10.1678C58.1302 10.1834 58.3369 9.90818 58.3672 9.54467C58.3974 9.18115 58.226 8.87476 57.9941 8.85399C57.7622 8.83322 57.5454 9.11365 57.5152 9.47716Z" fill="#2E353A"/>
<path d="M58.0898 8.87993L57.3437 8.51123C57.3437 8.51123 57.6764 9.2071 58.0898 8.87993Z" fill="#2E353A"/>
<path d="M62.093 6.85468C62.4344 6.83102 62.7765 6.88849 63.093 7.02265C63.4094 7.15681 63.6917 7.36408 63.918 7.62845" stroke="#2E353A" stroke-width="0.72468" stroke-linecap="round" stroke-linejoin="round"/>
<path d="M58.9773 6.49636C58.6882 6.40402 58.3827 6.37988 58.0833 6.42573C57.784 6.47157 57.4985 6.58623 57.248 6.7612" stroke="#2E353A" stroke-width="0.72468" stroke-linecap="round" stroke-linejoin="round"/>
<path d="M59.5317 14.2132C59.7082 14.7213 59.848 15.242 59.9502 15.7712C60.0442 15.7763 60.1385 15.7763 60.2325 15.7712C61.4879 15.714 62.0475 15.2519 62.2946 14.7741C62.4088 14.5336 62.4642 14.2679 62.4559 14.0003C62.4599 13.8494 62.4412 13.6987 62.4004 13.5537C61.6503 13.9485 60.8269 14.1734 59.9855 14.2132C59.6981 14.2132 59.5317 14.2132 59.5317 14.2132Z" fill="#2E353A"/>
<path d="M59.9855 14.2133L60.1217 14.6703C61.3064 14.6131 62.1383 14.4054 62.4812 14.0211C62.4852 13.8702 62.4665 13.7195 62.4257 13.5745C61.6664 13.9657 60.834 14.1836 59.9855 14.2133Z" fill="white"/>
<path d="M60.2326 15.7712C61.488 15.7141 62.0476 15.2519 62.2946 14.7741C61.8178 14.8049 61.3501 14.9227 60.9132 15.122C60.626 15.2597 60.3879 15.4867 60.2326 15.7712Z" fill="#DE5753"/>
<path d="M67.1044 11.3415C67.1044 11.3415 65.2894 7.59727 65.7431 4.80859C65.7431 4.80859 57.4295 0.752794 56.5371 9.61738C56.5371 9.61738 56.1237 1.67717 63.5097 1.91605C70.8957 2.15493 70.2756 13.2733 66.2876 16.3684C66.2876 16.3684 68.2236 13.6939 67.1044 11.3415Z" fill="#2E353A"/>
<path d="M66.3531 12.2347C66.3866 11.9823 66.468 11.7391 66.5929 11.5191C66.7177 11.2991 66.8835 11.1067 67.0807 10.9528C67.2778 10.7989 67.5026 10.6866 67.7419 10.6223C67.9813 10.558 68.2306 10.543 68.4756 10.5781C69.7966 10.8014 70.2806 13.6472 66.9632 14.1406C66.4539 14.2133 66.212 13.694 66.3531 12.2347Z" fill="#B97964"/>
<path d="M69.2622 24.2774C69.2622 24.2774 64.4423 28.3021 59.9855 28.2346C55.5287 28.167 53.9355 22.9792 53.9355 22.9792C53.9355 22.9792 60.8577 20.8552 69.2622 24.2774Z" fill="#B97964"/>
<path d="M68.8488 23.5192C68.8488 23.5192 60.9435 38.1014 69.2622 50.5648C69.2622 50.5648 70.3916 35.1881 73.1292 24.8954L68.8488 23.5192Z" fill="#407BFF"/>
<path d="M54.3439 22.3664C54.3439 22.3664 54.2733 32.685 52.8314 36.5175C51.3895 40.35 49.5594 47.5372 49.5594 47.5372C49.5594 47.5372 48.1679 30.3482 50.9005 22.7143L54.3439 22.3664Z" fill="#407BFF"/>
<path d="M65.7432 4.80862C65.7432 4.80862 62.5468 3.67134 59.7335 4.80862C56.9203 5.94591 57.6866 8.96308 56.2598 9.51355" stroke="#2E353A" stroke-width="0.5" stroke-linecap="round" stroke-linejoin="round"/>
<path d="M91.1178 20.5072L89.7969 19.7283L84.9418 21.0941L78.3876 19.344L76.8751 24.4696C76.8751 24.4696 76.5625 30.1819 76.8751 30.2495C77.1877 30.317 84.3771 30.7013 84.3771 30.7013L88.0323 28.3021L91.1178 20.5072Z" fill="#E0E0E0"/>
<path d="M76.6229 19.7283L73.724 31.5529L82.6729 32.5863L88.8489 30.8311L92 19.7283L84.9417 21.6134L76.6229 19.7283Z" fill="#407BFF"/>
<path opacity="0.4" d="M84.9417 21.6134L82.6729 32.5863L73.724 31.5529L76.6229 19.7283L84.9417 21.6134Z" fill="white"/>
<path opacity="0.2" d="M84.9417 21.6134L82.673 32.5863L88.849 30.8311L92 19.7283L84.9417 21.6134Z" fill="white"/>
<path d="M77.0869 43.2945L81.2462 35.0686C81.0953 33.7959 81.0953 32.5089 81.2462 31.2361C81.4983 29.1589 81.4983 28.6967 83.0914 28.8681C84.6846 29.0395 86.792 28.5929 87.0441 29.2005C87.2962 29.8081 85.698 34.2585 84.5233 35.0738L82.0781 43.2945H77.0869Z" fill="#B97964"/>
<path d="M75.7407 47.8125C78.3876 50.1338 81.4126 48.1397 83.0914 41.4769L77.8834 40.7863L75.7407 47.8125Z" fill="#407BFF"/>
<path d="M78.1506 39.3218L77.0869 41.2536L83.6813 42.1676V40.1786L78.1506 39.3218Z" fill="#2E353A"/>
<path d="M24.0488 29.3511L25.8738 30.5351L27.0687 23.7945L25.1378 23.701L24.0488 29.3511Z" fill="#2E353A"/>
<path d="M51.077 50.9802L40.5904 114.44C40.5904 114.44 65.9701 117.555 74.5711 115.738C74.5711 115.738 76.6836 70.3089 67.7044 52.3824L51.077 50.9802Z" fill="#407BFF"/>
<path opacity="0.4" d="M51.077 50.9802L40.5904 114.44C40.5904 114.44 65.9701 117.555 74.5711 115.738C74.5711 115.738 76.6836 70.3089 67.7044 52.3824L51.077 50.9802Z" fill="white"/>
<path d="M17.0256 23.083L14.4141 20.3047C12.8562 18.6274 10.7387 16.4307 8.63634 14.2236L5.52564 11.0039L2.80819 8.19447L0.887327 6.21071C0.655411 5.97183 0.468875 5.78488 0.347875 5.65506C0.295155 5.62531 0.237002 5.60717 0.177115 5.60181C0.117228 5.59644 0.0569141 5.60397 0 5.6239L0.710867 4.88647C0.691518 4.9451 0.684219 5.00723 0.689426 5.06892C0.694634 5.1306 0.712241 5.19049 0.741123 5.2448L1.28562 5.80046L3.22161 7.76863L5.95418 10.5573L9.10018 13.7459C11.253 15.901 13.3956 18.0717 15.0291 19.6712L17.7416 22.3456L17.0256 23.083Z" fill="#2E353A"/>
<path d="M36.3301 137.871C36.3301 137.871 33.6681 143.614 32.1304 144.726C32.1304 144.726 34.1874 145.988 36.3301 143.168C39.103 139.533 39.7786 140.571 39.7786 140.571C39.7236 139.944 39.6122 139.323 39.4459 138.717C39.0274 137.528 36.3301 137.871 36.3301 137.871Z" fill="#B97964"/>
<path d="M59.1335 137.808C59.1335 137.808 58.3772 139.938 57.3689 142.275C56.9071 143.485 56.2223 144.593 55.3522 145.536C55.3522 145.536 57.1067 146.123 58.0495 144.99C58.9923 143.858 60.6107 139.797 62.4257 140.244C62.3293 139.912 62.1938 139.592 62.0223 139.294C61.7501 138.847 59.1335 137.808 59.1335 137.808Z" fill="#B97964"/>
</svg>
